<svg width="22" height="22" viewBox="0 0 22 22" fill="none" xmlns="http://www.w3.org/2000/svg">
<path d="M11 0.500002C16.799 0.500002 21.5 5.20101 21.5 11C21.5 16.799 16.799 21.5 11 21.5C5.201 21.5 0.5 16.799 0.5 11C0.5 5.20101 5.201 0.500003 11 0.500002Z" fill="white" stroke="#ADD2FD"/>
<path d="M11.736 14.5579L14.775 10.1202C14.915 9.91523 14.989 9.70873 14.989 9.53709C14.989 9.20527 14.723 9 14.277 9H7.711C7.266 9 7 9.20501 7 9.53606C7 9.70796 7.074 9.91115 7.215 10.1165L10.253 14.5564C10.449 14.8419 10.712 15 10.995 15C11.278 15.0001 11.541 14.8438 11.736 14.5579Z" fill="#90BAF0"/>
</svg>
