<svg width="138" height="50" viewBox="0 0 138 50" fill="none" xmlns="http://www.w3.org/2000/svg">
<g clip-path="url(#clip0)">
<path d="M76.2679 22.3931C72.4627 21.3217 70.1722 21.1741 67.7341 21.1741C63.7442 21.1741 61.1951 23.4646 61.1951 27.0111C61.1951 30.1512 62.673 31.629 66.0347 32.6634C68.8423 33.5131 69.7659 33.624 69.7659 34.3628C69.7659 34.8061 69.4335 35.0279 68.5098 35.0279C67.106 35.0279 64.5568 34.289 61.8231 33.0329L60.1976 37.5399C62.9683 38.9069 66.4779 39.8304 68.9901 39.8304C73.4602 39.8304 76.4156 37.6878 76.4156 33.7349C76.4156 30.8163 74.9749 29.4125 71.5761 28.415C68.362 27.4916 67.4754 27.4916 67.4754 26.6418C67.4754 26.0877 67.9926 25.903 68.5837 25.903C69.5442 25.903 71.6129 26.1246 74.6793 27.0482L76.2679 22.3934V22.3931ZM85.3189 21.5065H78.6322V39.4977H85.3189V29.0059C86.1317 28.0824 86.9814 27.4913 87.8679 27.4913C88.9393 27.4913 89.4565 28.2302 89.4565 29.9665V39.4979H96.1432V28.969C97.0667 27.9347 97.8794 27.4913 98.6552 27.4913C99.7267 27.4913 100.207 28.2302 100.207 29.9665V39.4979H106.894V28.0455C106.894 23.169 105.416 21.211 101.722 21.211C99.8744 21.211 98.212 21.9129 95.6628 24.2774C94.961 22.1347 93.4463 21.211 90.9342 21.211C88.9393 21.211 87.3507 22.0607 85.3189 23.9448V21.5065ZM116.277 21.5065H109.59V39.4977H116.277V29.0059C117.09 28.0824 117.94 27.4913 118.826 27.4913C119.898 27.4913 120.415 28.2302 120.415 29.9665V39.4979H127.101V28.969C128.025 27.9347 128.838 27.4913 129.614 27.4913C130.685 27.4913 131.165 28.2302 131.165 29.9665V39.4979H137.852V28.0455C137.852 23.169 136.374 21.211 132.68 21.211C130.833 21.211 129.17 21.9129 126.621 24.2774C125.919 22.1347 124.405 21.211 121.892 21.211C119.898 21.211 118.309 22.0607 116.277 23.9448V21.5065Z" fill="white"/>
<path d="M47.0088 21.5066H40.3221V39.4977H47.0088V29.1536C47.8955 28.1561 48.856 27.4912 50.0012 27.4912C51.3312 27.4912 51.6638 28.0823 51.6638 29.9664V39.4977H58.3504V28.0454C58.3504 23.1689 56.9097 21.2109 53.1415 21.2109C51.1096 21.2109 49.3733 22.0606 47.0089 23.9078V21.5066H47.0088Z" fill="white"/>
<path d="M30.052 39.4979V20.9124C30.4035 20.2073 36.0797 16.9625 36.9604 17.5076V39.4979H30.052Z" fill="white"/>
<path fill-rule="evenodd" clip-rule="evenodd" d="M7.64454e-06 36.658C7.64454e-06 38.0335 0.455437 39.3275 1.22166 40.2806C1.94781 41.1844 2.90471 41.9007 3.83996 42.6013C4.51266 43.1051 5.03671 43.5666 5.67711 44.0886L11.0987 48.5451C11.7898 49.1101 12.3002 49.3858 13.433 49.5427C15.3043 49.802 17.0144 47.8973 18.5946 46.6093C18.917 46.3467 19.1673 46.1416 19.4847 45.8848L23.9612 42.1928C25.8175 40.4056 27.0699 39.7271 27.0699 36.3732C27.0699 35.0018 26.4908 33.0483 26.2063 31.6329C25.2932 27.0895 24.127 22.3545 23.168 17.7643L20.1441 3.97622C19.9862 3.22089 19.8352 2.39928 19.6231 1.64758C19.1969 0.136145 18.6913 -0.0540175 17.6667 0.184528C17.6399 0.503886 17.5355 0.93869 17.4923 1.24508L15.591 13.781C15.459 14.5604 15.3599 15.2898 15.2372 16.0868C15.1301 16.7819 14.9122 17.7805 14.9122 18.4213H11.8727C11.8727 17.3839 9.71747 0.623354 9.59307 0.0895769C9.08251 0.0470304 8.08903 -0.451983 7.54033 1.45612C7.15158 2.80736 6.38328 6.84448 6.00256 8.46695L2.9374 22.4987C2.51168 24.5602 -0.00012207 35.1292 -0.00012207 36.6579L7.64454e-06 36.658ZM15.4804 42.4402C15.6956 42.4402 15.6326 42.8409 15.4804 42.9932L13.9938 44.4797C13.8416 44.6318 13.5928 44.6318 13.4409 44.4797L11.9541 42.9932C11.8021 42.8409 11.7391 42.4402 11.9541 42.4402H15.4804ZM4.46635 29.1545C5.44648 28.8066 4.82851 28.3031 6.75504 29.7122L11.108 32.7681C13.6279 34.6215 13.8109 34.4357 15.9872 32.8902L21.3947 29.0841C22.1063 28.5482 21.996 28.8095 22.7203 29.0911C22.5185 28.2688 21.8654 27.1366 21.4641 26.4978C20.8794 25.5667 20.4368 25.1099 19.6531 24.5074C18.107 23.3188 15.9609 22.9361 13.5826 22.9206C11.0369 22.904 9.23584 23.3212 7.54046 24.5359C6.39871 25.3538 4.98949 27.3262 4.46622 29.1545H4.46635Z" fill="white"/>
</g>
<defs>
<clipPath id="clip0">
<rect width="137.852" height="49.567" fill="white"/>
</clipPath>
</defs>
</svg>
